<mxfile host="app.diagrams.net" agent="Mozilla/5.0 (Windows NT 10.0; Win64; x64) AppleWebKit/537.36 (KHTML, like Gecko) Chrome/127.0.0.0 Safari/537.36" version="24.7.7">
  <diagram name="Страница — 1" id="lkXG129X0FhNe-NRA0hn">
    <mxGraphModel dx="1434" dy="738" grid="1" gridSize="10" guides="1" tooltips="1" connect="1" arrows="1" fold="1" page="1" pageScale="1" pageWidth="690" pageHeight="980" math="0" shadow="0">
      <root>
        <mxCell id="0" />
        <mxCell id="1" parent="0" />
        <mxCell id="HGqrWFSIsBelk9RGakNo-1" style="edgeStyle=orthogonalEdgeStyle;rounded=0;orthogonalLoop=1;jettySize=auto;html=1;entryX=0;entryY=0.5;entryDx=0;entryDy=0;" edge="1" parent="1" source="HGqrWFSIsBelk9RGakNo-2" target="HGqrWFSIsBelk9RGakNo-11">
          <mxGeometry relative="1" as="geometry" />
        </mxCell>
        <mxCell id="HGqrWFSIsBelk9RGakNo-2" value="инициализация диалога с бота" style="rounded=1;whiteSpace=wrap;html=1;" vertex="1" parent="1">
          <mxGeometry x="230" y="280" width="110" height="60" as="geometry" />
        </mxCell>
        <mxCell id="HGqrWFSIsBelk9RGakNo-3" style="edgeStyle=orthogonalEdgeStyle;rounded=0;orthogonalLoop=1;jettySize=auto;html=1;entryX=0;entryY=0.5;entryDx=0;entryDy=0;exitX=0.999;exitY=0.123;exitDx=0;exitDy=0;exitPerimeter=0;" edge="1" parent="1" source="HGqrWFSIsBelk9RGakNo-6" target="HGqrWFSIsBelk9RGakNo-19">
          <mxGeometry relative="1" as="geometry" />
        </mxCell>
        <mxCell id="HGqrWFSIsBelk9RGakNo-4" style="edgeStyle=orthogonalEdgeStyle;rounded=0;orthogonalLoop=1;jettySize=auto;html=1;entryX=0;entryY=0.5;entryDx=0;entryDy=0;exitX=1;exitY=0.75;exitDx=0;exitDy=0;" edge="1" parent="1" source="HGqrWFSIsBelk9RGakNo-6" target="HGqrWFSIsBelk9RGakNo-23">
          <mxGeometry relative="1" as="geometry" />
        </mxCell>
        <mxCell id="HGqrWFSIsBelk9RGakNo-5" style="edgeStyle=orthogonalEdgeStyle;rounded=0;orthogonalLoop=1;jettySize=auto;html=1;" edge="1" parent="1" source="HGqrWFSIsBelk9RGakNo-6" target="HGqrWFSIsBelk9RGakNo-30">
          <mxGeometry relative="1" as="geometry">
            <Array as="points">
              <mxPoint x="780" y="310" />
              <mxPoint x="780" y="370" />
            </Array>
          </mxGeometry>
        </mxCell>
        <mxCell id="HGqrWFSIsBelk9RGakNo-6" value="1)Наши соц.сети&lt;div&gt;2)Наш сайт&lt;br&gt;&lt;div&gt;&lt;span style=&quot;background-color: initial;&quot;&gt;3)&lt;/span&gt;&lt;span style=&quot;background-color: initial;&quot;&gt;Расчет стоимости страхования&lt;/span&gt;&lt;br&gt;&lt;/div&gt;&lt;div&gt;4)&lt;span style=&quot;background-color: initial;&quot;&gt;Юридические услуги&lt;/span&gt;&lt;/div&gt;&lt;div&gt;&lt;span style=&quot;background-color: initial;&quot;&gt;5)&lt;/span&gt;&lt;span style=&quot;background-color: initial;&quot;&gt;Оператор&lt;/span&gt;&lt;/div&gt;&lt;div&gt;&lt;br&gt;&lt;/div&gt;&lt;/div&gt;" style="rounded=1;whiteSpace=wrap;html=1;" vertex="1" parent="1">
          <mxGeometry x="549" y="260" width="151" height="100" as="geometry" />
        </mxCell>
        <mxCell id="HGqrWFSIsBelk9RGakNo-7" value="&lt;span style=&quot;color: rgb(0, 0, 0); font-family: Helvetica; font-size: 12px; font-style: normal; font-variant-ligatures: normal; font-variant-caps: normal; font-weight: 400; letter-spacing: normal; orphans: 2; text-align: center; text-indent: 0px; text-transform: none; widows: 2; word-spacing: 0px; -webkit-text-stroke-width: 0px; white-space: normal; background-color: rgb(251, 251, 251); text-decoration-thickness: initial; text-decoration-style: initial; text-decoration-color: initial; display: inline !important; float: none;&quot;&gt;buttons&lt;/span&gt;" style="text;whiteSpace=wrap;html=1;" vertex="1" parent="1">
          <mxGeometry x="605" y="230" width="70" height="40" as="geometry" />
        </mxCell>
        <mxCell id="HGqrWFSIsBelk9RGakNo-8" value="&lt;span style=&quot;color: rgb(0, 0, 0); font-family: Helvetica; font-size: 12px; font-style: normal; font-variant-ligatures: normal; font-variant-caps: normal; font-weight: 400; letter-spacing: normal; orphans: 2; text-align: center; text-indent: 0px; text-transform: none; widows: 2; word-spacing: 0px; -webkit-text-stroke-width: 0px; white-space: normal; background-color: rgb(251, 251, 251); text-decoration-thickness: initial; text-decoration-style: initial; text-decoration-color: initial; display: inline !important; float: none;&quot;&gt;/start&lt;/span&gt;&lt;br style=&quot;forced-color-adjust: none; color: rgb(0, 0, 0); font-family: Helvetica; font-size: 12px; font-style: normal; font-variant-ligatures: normal; font-variant-caps: normal; font-weight: 400; letter-spacing: normal; orphans: 2; text-align: center; text-indent: 0px; text-transform: none; widows: 2; word-spacing: 0px; -webkit-text-stroke-width: 0px; white-space: normal; background-color: rgb(251, 251, 251); text-decoration-thickness: initial; text-decoration-style: initial; text-decoration-color: initial;&quot;&gt;" style="text;whiteSpace=wrap;html=1;" vertex="1" parent="1">
          <mxGeometry x="270" y="250" width="60" height="40" as="geometry" />
        </mxCell>
        <mxCell id="HGqrWFSIsBelk9RGakNo-9" value="нужно несколько значений для вызова кнопок с полезной информацией" style="shape=callout;whiteSpace=wrap;html=1;perimeter=calloutPerimeter;" vertex="1" parent="1">
          <mxGeometry x="560" y="140" width="140" height="100" as="geometry" />
        </mxCell>
        <mxCell id="HGqrWFSIsBelk9RGakNo-10" style="edgeStyle=orthogonalEdgeStyle;rounded=0;orthogonalLoop=1;jettySize=auto;html=1;" edge="1" parent="1" source="HGqrWFSIsBelk9RGakNo-11" target="HGqrWFSIsBelk9RGakNo-6">
          <mxGeometry relative="1" as="geometry" />
        </mxCell>
        <mxCell id="HGqrWFSIsBelk9RGakNo-11" value="Добрый день.Я бот компании $name" style="rounded=1;whiteSpace=wrap;html=1;" vertex="1" parent="1">
          <mxGeometry x="370" y="280" width="120" height="60" as="geometry" />
        </mxCell>
        <mxCell id="HGqrWFSIsBelk9RGakNo-12" value="приветственное&lt;div&gt;&amp;nbsp;сообщение с кнопками&amp;nbsp;&lt;/div&gt;&lt;div&gt;и информации по услгуам&lt;/div&gt;" style="text;html=1;align=center;verticalAlign=middle;resizable=0;points=[];autosize=1;strokeColor=none;fillColor=none;" vertex="1" parent="1">
          <mxGeometry x="340" y="220" width="170" height="60" as="geometry" />
        </mxCell>
        <mxCell id="HGqrWFSIsBelk9RGakNo-13" style="edgeStyle=orthogonalEdgeStyle;rounded=0;orthogonalLoop=1;jettySize=auto;html=1;entryX=0;entryY=0.25;entryDx=0;entryDy=0;" edge="1" parent="1" source="HGqrWFSIsBelk9RGakNo-14" target="HGqrWFSIsBelk9RGakNo-2">
          <mxGeometry relative="1" as="geometry" />
        </mxCell>
        <mxCell id="HGqrWFSIsBelk9RGakNo-14" value="тг каналы" style="rounded=1;whiteSpace=wrap;html=1;" vertex="1" parent="1">
          <mxGeometry x="40" y="210" width="120" height="60" as="geometry" />
        </mxCell>
        <mxCell id="HGqrWFSIsBelk9RGakNo-15" style="edgeStyle=orthogonalEdgeStyle;rounded=0;orthogonalLoop=1;jettySize=auto;html=1;entryX=0;entryY=0.5;entryDx=0;entryDy=0;" edge="1" parent="1" source="HGqrWFSIsBelk9RGakNo-16" target="HGqrWFSIsBelk9RGakNo-2">
          <mxGeometry relative="1" as="geometry" />
        </mxCell>
        <mxCell id="HGqrWFSIsBelk9RGakNo-16" value="ВК" style="rounded=1;whiteSpace=wrap;html=1;" vertex="1" parent="1">
          <mxGeometry x="40" y="280" width="120" height="60" as="geometry" />
        </mxCell>
        <mxCell id="HGqrWFSIsBelk9RGakNo-17" style="edgeStyle=orthogonalEdgeStyle;rounded=0;orthogonalLoop=1;jettySize=auto;html=1;entryX=0;entryY=0.75;entryDx=0;entryDy=0;" edge="1" parent="1" source="HGqrWFSIsBelk9RGakNo-18" target="HGqrWFSIsBelk9RGakNo-2">
          <mxGeometry relative="1" as="geometry" />
        </mxCell>
        <mxCell id="HGqrWFSIsBelk9RGakNo-18" value="инста" style="rounded=1;whiteSpace=wrap;html=1;" vertex="1" parent="1">
          <mxGeometry x="40" y="350" width="120" height="60" as="geometry" />
        </mxCell>
        <mxCell id="HGqrWFSIsBelk9RGakNo-19" value="*ссылки на вк группу,инсту*" style="rounded=1;whiteSpace=wrap;html=1;" vertex="1" parent="1">
          <mxGeometry x="810" y="170" width="120" height="60" as="geometry" />
        </mxCell>
        <mxCell id="HGqrWFSIsBelk9RGakNo-20" value="ссылка на сайт(возможно следует добавить еще что-то, чтобы не было только ссылки" style="rounded=1;whiteSpace=wrap;html=1;" vertex="1" parent="1">
          <mxGeometry x="805" y="240" width="135" height="70" as="geometry" />
        </mxCell>
        <mxCell id="HGqrWFSIsBelk9RGakNo-21" value="$massage = предоставьте следующую информацию" style="rounded=1;whiteSpace=wrap;html=1;" vertex="1" parent="1">
          <mxGeometry x="970" y="360" width="120" height="60" as="geometry" />
        </mxCell>
        <mxCell id="HGqrWFSIsBelk9RGakNo-22" style="edgeStyle=orthogonalEdgeStyle;rounded=0;orthogonalLoop=1;jettySize=auto;html=1;entryX=0;entryY=0.5;entryDx=0;entryDy=0;" edge="1" parent="1" source="HGqrWFSIsBelk9RGakNo-23" target="HGqrWFSIsBelk9RGakNo-27">
          <mxGeometry relative="1" as="geometry" />
        </mxCell>
        <mxCell id="HGqrWFSIsBelk9RGakNo-23" value="$operatorName" style="rounded=1;whiteSpace=wrap;html=1;" vertex="1" parent="1">
          <mxGeometry x="810" y="470" width="120" height="60" as="geometry" />
        </mxCell>
        <mxCell id="HGqrWFSIsBelk9RGakNo-24" style="edgeStyle=orthogonalEdgeStyle;rounded=0;orthogonalLoop=1;jettySize=auto;html=1;entryX=-0.006;entryY=0.69;entryDx=0;entryDy=0;entryPerimeter=0;" edge="1" parent="1" source="HGqrWFSIsBelk9RGakNo-6" target="HGqrWFSIsBelk9RGakNo-20">
          <mxGeometry relative="1" as="geometry">
            <Array as="points">
              <mxPoint x="739" y="293" />
              <mxPoint x="739" y="281" />
            </Array>
          </mxGeometry>
        </mxCell>
        <mxCell id="HGqrWFSIsBelk9RGakNo-25" value="редирект чата&lt;div&gt;&amp;nbsp;на оператора&lt;/div&gt;" style="text;html=1;align=center;verticalAlign=middle;resizable=0;points=[];autosize=1;strokeColor=none;fillColor=none;" vertex="1" parent="1">
          <mxGeometry x="820" y="430" width="100" height="40" as="geometry" />
        </mxCell>
        <mxCell id="HGqrWFSIsBelk9RGakNo-26" value="запрос инфы" style="text;html=1;align=center;verticalAlign=middle;resizable=0;points=[];autosize=1;strokeColor=none;fillColor=none;" vertex="1" parent="1">
          <mxGeometry x="980" y="330" width="100" height="30" as="geometry" />
        </mxCell>
        <mxCell id="HGqrWFSIsBelk9RGakNo-27" value="закрытие диалога с самим ботом" style="rounded=1;whiteSpace=wrap;html=1;" vertex="1" parent="1">
          <mxGeometry x="990" y="470" width="120" height="60" as="geometry" />
        </mxCell>
        <mxCell id="HGqrWFSIsBelk9RGakNo-28" value="оставлю кнопки&lt;div&gt;для большинства значений,чтобы они были всегда активны&lt;/div&gt;" style="shape=callout;whiteSpace=wrap;html=1;perimeter=calloutPerimeter;" vertex="1" parent="1">
          <mxGeometry x="590" y="40" width="130" height="100" as="geometry" />
        </mxCell>
        <mxCell id="HGqrWFSIsBelk9RGakNo-29" style="edgeStyle=orthogonalEdgeStyle;rounded=0;orthogonalLoop=1;jettySize=auto;html=1;entryX=0;entryY=0.5;entryDx=0;entryDy=0;" edge="1" parent="1" source="HGqrWFSIsBelk9RGakNo-30" target="HGqrWFSIsBelk9RGakNo-21">
          <mxGeometry relative="1" as="geometry" />
        </mxCell>
        <mxCell id="HGqrWFSIsBelk9RGakNo-30" value="выберите тип страхования" style="rounded=1;whiteSpace=wrap;html=1;" vertex="1" parent="1">
          <mxGeometry x="810" y="360" width="120" height="60" as="geometry" />
        </mxCell>
        <mxCell id="HGqrWFSIsBelk9RGakNo-31" value="список страховок" style="text;html=1;align=center;verticalAlign=middle;resizable=0;points=[];autosize=1;strokeColor=none;fillColor=none;" vertex="1" parent="1">
          <mxGeometry x="805" y="330" width="120" height="30" as="geometry" />
        </mxCell>
      </root>
    </mxGraphModel>
  </diagram>
</mxfile>
